<svg width="21" height="18" viewBox="0 0 21 18" fill="none" xmlns="http://www.w3.org/2000/svg">
<path d="M13 17C13 14.7909 10.3137 13 7 13C3.68629 13 1 14.7909 1 17M14.8281 3.17188C15.1996 3.54331 15.4942 3.98427 15.6952 4.46957C15.8962 4.95487 15.9999 5.47533 15.9999 6.00062C15.9999 6.52591 15.8963 7.04497 15.6953 7.53027C15.4943 8.01558 15.1996 8.45705 14.8281 8.82848M17 1C17.6566 1.65661 18.1775 2.43612 18.5328 3.29402C18.8882 4.15192 19.0718 5.07127 19.0718 5.99985C19.0718 6.92844 18.8886 7.84815 18.5332 8.70605C18.1778 9.56396 17.6566 10.3435 17 11.0001M7 10C4.79086 10 3 8.20914 3 6C3 3.79086 4.79086 2 7 2C9.20914 2 11 3.79086 11 6C11 8.20914 9.20914 10 7 10Z" stroke="#525252" stroke-width="2" stroke-linecap="round" stroke-linejoin="round"/>
</svg>
